<svg width="24" height="24" viewBox="0 0 24 24" xmlns="http://www.w3.org/2000/svg">
<path d="M13.2515 10.75C13.2515 10.3358 12.9157 10 12.5015 10C12.0873 10 11.7515 10.3358 11.7515 10.75V12.7502L10.151 11.8262C9.79226 11.6191 9.33357 11.742 9.12647 12.1007C8.91936 12.4594 9.04226 12.9181 9.40098 13.1252L11.0015 14.0492L9.22278 15.0762C8.86406 15.2833 8.74116 15.742 8.94826 16.1007C9.15537 16.4594 9.61406 16.5823 9.97278 16.3752L11.7515 15.3483V17.25C11.7515 17.6642 12.0873 18 12.5015 18C12.9157 18 13.2515 17.6642 13.2515 17.25V15.3483L15.0301 16.3752C15.3889 16.5823 15.8476 16.4594 16.0547 16.1007C16.2618 15.742 16.1389 15.2833 15.7801 15.0762L14.0015 14.0492L15.6019 13.1252C15.9607 12.9181 16.0836 12.4594 15.8765 12.1007C15.6694 11.742 15.2107 11.6191 14.8519 11.8262L13.2515 12.7502V10.75Z"/>
<path d="M3.50195 6.25C3.50195 4.45507 4.95703 3 6.75195 3H18.252C20.0469 3 21.502 4.45507 21.502 6.25V17.75C21.502 19.5449 20.0469 21 18.252 21H6.75195C4.95703 21 3.50195 19.5449 3.50195 17.75V6.25ZM5.00195 7H20.002V6.25C20.002 5.2835 19.2185 4.5 18.252 4.5H6.75195C5.78545 4.5 5.00195 5.2835 5.00195 6.25V7ZM20.002 8.5H5.00195V17.75C5.00195 18.7165 5.78545 19.5 6.75195 19.5H18.252C19.2185 19.5 20.002 18.7165 20.002 17.75V8.5Z"/>
</svg>
