<svg width="20" height="20" viewBox="0 0 20 20" fill="none" xmlns="http://www.w3.org/2000/svg">
<path d="M8 16.25C8.9665 16.25 9.75 15.4665 9.75 14.5C9.75 13.5335 8.9665 12.75 8 12.75C7.0335 12.75 6.25 13.5335 6.25 14.5C6.25 15.4665 7.0335 16.25 8 16.25Z" fill="black"/>
<path d="M10 4C12.8166 4 14.4145 5.92329 14.6469 8.24599L14.7179 8.24599C16.5306 8.24599 18 9.75792 18 11.623C18 13.0285 17.1654 14.2335 15.9784 14.742C15.9912 14.6632 15.9979 14.5824 15.9979 14.5C15.9979 14.217 15.9191 13.952 15.7822 13.7259C16.5046 13.3284 17 12.5386 17 11.623C17 10.3039 15.9718 9.24599 14.718 9.24599L14.6469 9.24599C14.1332 9.24601 13.703 8.85673 13.6518 8.34554C13.4497 6.32493 12.1085 5 10 5C7.88606 5 6.55108 6.31588 6.34818 8.34547C6.29707 8.85669 5.86688 9.24601 5.3531 9.24599L5.28207 9.24599C4.02819 9.24599 3 10.3039 3 11.623C3 12.9421 4.02819 14 5.28205 14H5.29534C5.26556 14.1621 5.25 14.3293 5.25 14.5C5.25 14.6707 5.26556 14.8379 5.29534 15H5.28205C3.46942 15 2 13.4881 2 11.623C2 9.82009 3.3731 8.34717 5.10199 8.25098L5.35314 8.24599C5.58687 5.90802 7.18335 4 10 4Z" fill="black"/>
<path d="M6.32247 15C6.53761 15.7229 7.20724 16.25 8 16.25C8.9665 16.25 9.75 15.4665 9.75 14.5C9.75 13.5335 8.9665 12.75 8 12.75C7.20724 12.75 6.53761 13.2771 6.32247 14C6.27532 14.1584 6.25 14.3263 6.25 14.5C6.25 14.6737 6.27532 14.8416 6.32247 15Z" fill="black"/>
<path d="M6.68583 11.2642C7.01997 11.1306 7.3494 11.0488 7.67533 11.0162C7.70249 11.0135 7.72963 11.0111 7.75674 11.0091C7.83805 11.003 7.9192 11 8.00013 11C9.86585 11 11.4046 12.4823 11.4958 14.3266L11.4976 14.3653C11.4992 14.4097 11.5001 14.4543 11.5001 14.499C11.5001 16.423 9.92409 17.999 8.00009 17.999C7.56909 17.999 7.13209 17.913 6.68609 17.735C6.43009 17.632 6.13909 17.757 6.03609 18.013C6.02845 18.0323 6.02207 18.0517 6.01693 18.0713C5.95238 18.3124 6.07689 18.5692 6.31444 18.6642C6.86891 18.886 7.43176 19 8.00013 19C9.19919 19 10.2922 18.5254 11.1007 17.7547C11.1186 17.7376 11.1365 17.7203 11.1542 17.7029C11.8722 16.9961 12.3556 16.0515 12.473 15H14.4992C14.658 15 14.7995 14.926 14.8911 14.8105C14.9593 14.7251 15.0001 14.6168 15.0001 14.499C15.0001 14.223 14.7761 13.999 14.5001 13.999H12.4731C12.2231 11.756 10.3081 9.99902 8.00109 9.99902C7.43209 9.99902 6.86909 10.113 6.31509 10.335C6.11925 10.4135 6.00007 10.6012 6 10.7993C5.9999 10.8614 6.01143 10.9245 6.03589 10.9857C6.13845 11.2421 6.42944 11.3668 6.68583 11.2642Z" fill="black"/>
</svg>
