<svg width="24" height="24" viewBox="0 0 24 24" fill="none" xmlns="http://www.w3.org/2000/svg">
<path d="M2.68066 18.3381C2.68066 18.9633 3.01421 19.541 3.55566 19.8536L6.30566 21.4413C6.84712 21.754 7.51421 21.754 8.05566 21.4413L10.8057 19.8536C11.3471 19.541 11.6807 18.9633 11.6807 18.3381V15.1627C11.6807 14.5374 11.3471 13.9597 10.8057 13.6471L8.05566 12.0594C7.51421 11.7468 6.84712 11.7468 6.30566 12.0594L3.55566 13.6471C3.01421 13.9597 2.68066 14.5375 2.68066 15.1627V18.3381ZM4.30566 18.5546C4.22831 18.5099 4.18066 18.4274 4.18066 18.3381V15.1627C4.18066 15.0733 4.22831 14.9908 4.30566 14.9462L7.05566 13.3584C7.13301 13.3138 7.22831 13.3138 7.30566 13.3584L10.0557 14.9462C10.133 14.9908 10.1807 15.0733 10.1807 15.1627V18.3381C10.1807 18.4274 10.133 18.5099 10.0557 18.5546L7.30566 20.1423C7.22831 20.187 7.13301 20.187 7.05566 20.1423L4.30566 18.5546Z" fill="white" />
<path d="M13.6807 18.3381C13.6807 18.9633 14.0142 19.541 14.5557 19.8536L17.3057 21.4413C17.8471 21.754 18.5142 21.754 19.0557 21.4413L21.8057 19.8536C22.3471 19.541 22.6807 18.9633 22.6807 18.3381V15.1627C22.6807 14.5374 22.3471 13.9597 21.8057 13.6471L19.0557 12.0594C18.5142 11.7468 17.8471 11.7468 17.3057 12.0594L14.5557 13.6471C14.0142 13.9597 13.6807 14.5375 13.6807 15.1627V18.3381ZM15.3057 18.5546C15.2283 18.5099 15.1807 18.4274 15.1807 18.3381V15.1627C15.1807 15.0733 15.2283 14.9908 15.3057 14.9462L18.0557 13.3584C18.133 13.3138 18.2283 13.3138 18.3057 13.3584L21.0557 14.9462C21.133 14.9908 21.1807 15.0733 21.1807 15.1627V18.3381C21.1807 18.4274 21.133 18.5099 21.0557 18.5546L18.3057 20.1423C18.2283 20.187 18.133 20.187 18.0557 20.1423L15.3057 18.5546Z" fill="white" />
<path d="M9.05567 10.3536C8.51421 10.041 8.18066 9.46331 8.18066 8.83809V5.66266C8.18066 5.03745 8.51421 4.45973 9.05566 4.14712L11.8057 2.55941C12.3471 2.2468 13.0142 2.2468 13.5557 2.55941L16.3057 4.14712C16.8471 4.45973 17.1807 5.03745 17.1807 5.66266V8.83809C17.1807 9.4633 16.8471 10.041 16.3057 10.3536L13.5557 11.9413C13.0142 12.254 12.3471 12.254 11.8057 11.9413L9.05567 10.3536ZM9.68066 8.83809C9.68066 8.92741 9.72831 9.00994 9.80566 9.0546L12.5557 10.6423C12.633 10.687 12.7283 10.687 12.8057 10.6423L15.5557 9.0546C15.633 9.00994 15.6807 8.92741 15.6807 8.83809V5.66266C15.6807 5.57335 15.633 5.49082 15.5557 5.44616L12.8057 3.85844C12.7283 3.81379 12.633 3.81379 12.5557 3.85844L9.80566 5.44616C9.72831 5.49082 9.68066 5.57335 9.68066 5.66266V8.83809Z" fill="white"/>
</svg>
