<svg width="32" height="32" viewBox="0 0 32 32" fill="none" xmlns="http://www.w3.org/2000/svg">
<path d="M21 10.001C22.6569 10.001 24 8.65783 24 7.00098C24 5.34412 22.6569 4.00098 21 4.00098C19.3431 4.00098 18 5.34412 18 7.00098C18 7.77881 18.296 8.48751 18.7816 9.02055L17.5109 11.2333C17.0342 11.0824 16.5266 11.001 16 11.001C14.991 11.001 14.0518 11.2999 13.2661 11.8139L11.7201 10.268C11.8997 9.88307 12 9.45373 12 9.00098C12 7.34412 10.6569 6.00098 9 6.00098C7.34315 6.00098 6 7.34412 6 9.00098C6 10.6578 7.34315 12.001 9 12.001C9.47351 12.001 9.92139 11.8913 10.3196 11.6959L11.844 13.2202C11.3109 14.0153 11 14.9718 11 16.001C11 16.5265 11.0811 17.0332 11.2314 17.509L9.00238 18.767C8.47134 18.2907 7.7695 18.001 7 18.001C5.34315 18.001 4 19.3441 4 21.001C4 22.6578 5.34315 24.001 7 24.001C8.65685 24.001 10 22.6578 10 21.001C10 20.8379 9.98699 20.6779 9.96197 20.522L12.2047 19.2563C13.1217 20.3244 14.4818 21.001 16 21.001C16.7984 21.001 17.5531 20.8138 18.2227 20.481C18.0779 20.0133 18 19.5162 18 19.001C18 18.7194 18.0233 18.4432 18.068 18.1743C17.5299 18.6866 16.8016 19.001 16 19.001C14.3431 19.001 13 17.6578 13 16.001C13 14.3441 14.3431 13.001 16 13.001C17.6567 13.001 18.9997 14.3439 19 16.0005C19.4669 15.379 20.0753 14.8699 20.7773 14.5209C20.4959 13.6116 19.9621 12.8133 19.2577 12.2078L20.5446 9.96663C20.6931 9.98925 20.8452 10.001 21 10.001ZM21 8.00098C20.4477 8.00098 20 7.55326 20 7.00098C20 6.44869 20.4477 6.00098 21 6.00098C21.5523 6.00098 22 6.44869 22 7.00098C22 7.55326 21.5523 8.00098 21 8.00098ZM9 10.001C8.44772 10.001 8 9.55326 8 9.00098C8 8.44869 8.44772 8.00098 9 8.00098C9.55228 8.00098 10 8.44869 10 9.00098C10 9.55326 9.55228 10.001 9 10.001ZM8 21.001C8 21.5533 7.55228 22.001 7 22.001C6.44772 22.001 6 21.5533 6 21.001C6 20.4487 6.44772 20.001 7 20.001C7.55228 20.001 8 20.4487 8 21.001Z" fill="white"/>
<path d="M26.5 19.001C26.5 20.934 24.933 22.501 23 22.501C21.067 22.501 19.5 20.934 19.5 19.001C19.5 17.068 21.067 15.501 23 15.501C24.933 15.501 26.5 17.068 26.5 19.001Z" fill="white"/>
<path d="M29 26.4385C29 28.4619 27.2857 30.5009 23 30.501C18.7143 30.501 17 28.4696 17 26.4385C17 25.1034 18.0823 24.001 19.4174 24.001H26.5826C27.9177 24.001 29 25.1034 29 26.4385Z" fill="white"/>
</svg>
