<svg width="32" height="32" viewBox="0 0 32 32" fill="none" xmlns="http://www.w3.org/2000/svg">
<path d="M14.626 3.54621C15.397 2.81793 16.603 2.81793 17.374 3.54621L27.061 12.6965C27.6604 13.2626 28 14.0503 28 14.8744V17H26V14.8744C26 14.5997 25.8868 14.3371 25.687 14.1484L16 4.99817L6.31299 14.1484C6.1132 14.3371 6 14.5997 6 14.8744V26.0027C6 26.5545 6.44772 27.0018 7 27.0018H17.7413C17.5422 27.2377 17.3803 27.5034 17.2619 27.7895C17.1112 28.1536 17.0337 28.5437 17.0337 28.9377C17.0338 28.9585 17.034 28.9793 17.0344 29H7C5.34314 29 4 27.6581 4 26.0027V14.8744C4 14.0503 4.33961 13.2626 4.93896 12.6965L14.626 3.54621Z" fill="white"/>
<path d="M29.1951 19H21.1411C20.9818 19.0004 20.8262 19.0479 20.6939 19.1366C20.5617 19.2253 20.4587 19.3512 20.3979 19.4985C20.3371 19.6457 20.3213 19.8076 20.3525 19.9638C20.3837 20.12 20.4604 20.2634 20.5731 20.376L28.6261 28.429C28.7377 28.5441 28.8814 28.6229 29.0384 28.6553C29.1955 28.6878 29.3586 28.6722 29.5067 28.6108C29.6548 28.5494 29.781 28.4448 29.869 28.3108C29.957 28.1767 30.0026 28.0193 30.0001 27.859V19.805C30.0001 19.5928 29.9158 19.3893 29.7657 19.2393C29.6157 19.0893 29.4122 19.005 29.2001 19.005L29.1951 19Z" fill="white"/>
<path d="M21.0952 24.341L20.3882 25.048C20.296 25.1435 20.1856 25.2196 20.0636 25.2721C19.9416 25.3245 19.8104 25.352 19.6776 25.3532C19.5449 25.3544 19.4132 25.3291 19.2903 25.2788C19.1674 25.2285 19.0557 25.1542 18.9618 25.0603C18.8679 24.9665 18.7937 24.8548 18.7434 24.7319C18.6931 24.609 18.6678 24.4773 18.669 24.3446C18.6701 24.2118 18.6977 24.0806 18.7501 23.9585C18.8025 23.8365 18.8787 23.7262 18.9742 23.634L19.6812 22.927C19.8698 22.7448 20.1224 22.644 20.3846 22.6463C20.6468 22.6486 20.8976 22.7537 21.0831 22.9391C21.2685 23.1245 21.3736 23.3754 21.3759 23.6376C21.3782 23.8997 21.2774 24.1523 21.0952 24.341Z" fill="white"/>
<path d="M23.5696 25.4C23.6626 25.4928 23.7363 25.6031 23.7867 25.7245C23.837 25.8459 23.8629 25.976 23.8629 26.1075C23.8629 26.2389 23.837 26.369 23.7867 26.4904C23.7363 26.6118 23.6626 26.7221 23.5696 26.815L20.7406 29.644C20.552 29.8261 20.2994 29.9269 20.0372 29.9246C19.775 29.9224 19.5242 29.8172 19.3388 29.6318C19.1534 29.4464 19.0482 29.1956 19.0459 28.9334C19.0437 28.6712 19.1445 28.4186 19.3266 28.23L22.1556 25.4C22.3431 25.2125 22.5974 25.1072 22.8626 25.1072C23.1278 25.1072 23.3821 25.2125 23.5696 25.4Z" fill="white"/>
<path d="M24.6301 27.876C24.8177 27.6884 25.0722 27.5832 25.3374 27.5833C25.6027 27.5833 25.8571 27.6888 26.0446 27.8765C26.2321 28.0641 26.3374 28.3185 26.3373 28.5838C26.3372 28.8491 26.2317 29.1034 26.0441 29.291L25.3371 30C25.2442 30.0928 25.1339 30.1664 25.0125 30.2167C24.8912 30.2669 24.7611 30.2927 24.6297 30.2927C24.4984 30.2926 24.3683 30.2667 24.247 30.2164C24.1257 30.1661 24.0154 30.0924 23.9226 29.9995C23.8297 29.9065 23.7561 29.7963 23.7059 29.6749C23.6557 29.5535 23.6298 29.4234 23.6299 29.2921C23.6299 29.1608 23.6558 29.0307 23.7062 28.9094C23.7565 28.788 23.8302 28.6778 23.9231 28.585L24.6301 27.876Z" fill="white"/>
</svg>
