<svg width="32" height="32" viewBox="0 0 32 32" fill="none" xmlns="http://www.w3.org/2000/svg">
<path d="M14.6571 8.02522C14.5461 7.99925 14.3929 7.98988 14.1473 8.0245C13.8193 8.07613 13.612 8.22464 13.459 8.44229C13.291 8.68142 13.1649 9.04447 13.1245 9.52129C13.12 9.7201 13.0932 10.2704 13.0543 11H14.5C15.0523 11 15.5 11.4477 15.5 12C15.5 12.5523 15.0523 13 14.5 13H12.9431C12.8323 14.9355 12.7029 17.0629 12.6535 17.705L12.653 17.7113L12.6464 17.7908C12.6031 18.3161 12.5459 19.0084 12.3396 19.6549C12.1127 20.3657 11.6858 21.0918 10.8608 21.578C9.6654 22.3166 8.40448 21.9482 7.55303 21.5225C7.05905 21.2755 6.8588 20.6748 7.10578 20.1809C7.35275 19.6869 7.95342 19.4866 8.4474 19.7336C9.09284 20.0563 9.51331 20.0617 9.814 19.8738C9.82263 19.8684 9.83134 19.8631 9.84013 19.858C10.1317 19.6879 10.3108 19.4337 10.4343 19.0467C10.5687 18.6256 10.6105 18.1382 10.6597 17.5484C10.7058 16.9473 10.8222 15.0399 10.9277 13.2116L10.9398 13H9.5C8.94772 13 8.5 12.5523 8.5 12C8.5 11.4477 8.94772 11 9.5 11H11.0516L11.0666 10.7204C11.0848 10.3756 11.0997 10.0822 11.11 9.86117C11.1152 9.75052 11.1191 9.65967 11.1217 9.59041C11.123 9.55576 11.1239 9.5279 11.1245 9.50647L11.1251 9.4813L11.1252 9.47267C11.1252 9.44708 11.1262 9.42148 11.1282 9.39596C11.1842 8.66797 11.3846 7.91566 11.8227 7.29234C12.2783 6.64398 12.9603 6.18356 13.8482 6.04698L13.8588 6.04534C14.2661 5.98716 14.6856 5.97784 15.1129 6.07785C15.5478 6.17964 15.932 6.38089 16.2878 6.66457C16.7196 7.00891 16.7905 7.63809 16.4461 8.06989C16.1018 8.50169 15.4726 8.57259 15.0408 8.22825C14.8809 8.10075 14.7612 8.04959 14.6571 8.02522Z" fill="white"/>
<path d="M21.3321 14.1679C21.7226 14.5584 21.7226 15.1916 21.3321 15.5821L19.4233 17.4909C19.7767 18.0505 20.0711 18.5148 20.1537 18.6367C20.2059 18.7136 20.2524 18.785 20.2911 18.8452C20.6552 18.4786 21.2459 18.448 21.6467 18.7878C22.0679 19.1449 22.1199 19.7759 21.7628 20.1972L21.7562 20.2053L21.7433 20.2215C21.6717 20.3118 21.4516 20.5892 21.1715 20.7611C20.7605 21.0133 20.3081 21.0414 19.8577 20.9563C19.7823 20.942 19.7088 20.9191 19.6387 20.8881C19.3242 20.7488 19.086 20.5755 18.8793 20.3191C18.7959 20.2156 18.726 20.1085 18.6736 20.0275L18.6346 19.9669C18.5918 19.9003 18.5506 19.8361 18.4985 19.7593C18.4214 19.6456 18.2208 19.3311 17.9736 18.9406L16.1759 20.7384C15.7853 21.1289 15.1522 21.1289 14.7616 20.7384C14.3711 20.3479 14.3711 19.7147 14.7616 19.3242L16.8788 17.207C16.6171 16.7933 16.4129 16.4726 16.3463 16.3743C16.3311 16.3518 16.3167 16.3287 16.3034 16.3051C16.2738 16.2528 16.2444 16.2039 16.2153 16.1594C15.8518 16.5321 15.2565 16.565 14.8534 16.2232C14.4321 15.8661 14.3801 15.2351 14.7372 14.8138C14.8793 14.6462 15.1134 14.3927 15.4346 14.2151C15.7912 14.0179 16.2689 13.9101 16.7901 14.0946C16.8141 14.1031 16.8378 14.1125 16.8611 14.1228C17.4862 14.3993 17.858 14.9948 18.0253 15.2872C18.087 15.3802 18.1941 15.5472 18.3281 15.7577L19.9179 14.1679C20.3084 13.7774 20.9416 13.7774 21.3321 14.1679Z" fill="white"/>
<path d="M3 5.5C3 3.01472 5.01472 1 7.5 1H21.5C23.9853 1 26 3.01472 26 5.5V23.5C26 25.9853 23.9853 28 21.5 28H7.5C5.01472 28 3 25.9853 3 23.5V5.5ZM7.5 3C6.11929 3 5 4.11929 5 5.5V23.5C5 24.8807 6.11929 26 7.5 26H21.5C22.8807 26 24 24.8807 24 23.5V5.5C24 4.11929 22.8807 3 21.5 3H7.5Z" fill="white"/>
<path d="M29 10.5C29 8.65664 28.2327 6.9925 27 5.80957V24.5C27 26.9853 24.9853 29 22.5 29H7.80957C8.9925 30.2327 10.6566 31 12.5 31H22.5C26.0898 31 29 28.0898 29 24.5V10.5Z" fill="white"/>
</svg>
