<svg width="32" height="32" viewBox="0 0 32 32" fill="none" xmlns="http://www.w3.org/2000/svg">
<path d="M18.4298 5.01206C18.4974 4.78322 18.5336 4.54084 18.5336 4.28986C18.5336 2.8853 17.3983 1.75 15.9938 1.75C14.5892 1.75 13.4539 2.8853 13.4539 4.28986C13.4539 4.54257 13.4907 4.78656 13.5591 5.01679L7.70115 8.39899C7.53662 8.22515 7.34462 8.07163 7.12693 7.94519C5.91158 7.24654 4.35419 7.66136 3.65554 8.87671C2.9569 10.0921 3.37172 11.6495 4.58707 12.3481C4.80435 12.473 5.03255 12.5623 5.26483 12.6178V19.3835C5.03405 19.439 4.80722 19.5281 4.59098 19.6524C3.37563 20.3583 2.96082 21.9084 3.65946 23.1238C4.3581 24.3391 5.90822 24.754 7.13085 24.0553C7.34671 23.9299 7.53732 23.7779 7.70093 23.6059L13.5579 26.9875C13.4902 27.2165 13.4539 27.459 13.4539 27.7101C13.4539 29.1147 14.5892 30.25 15.9938 30.25C17.3983 30.25 18.5336 29.1074 18.5336 27.7101C18.5336 27.4288 18.4881 27.1582 18.4039 26.9054L24.2271 23.5433C24.4035 23.7419 24.6144 23.9157 24.8572 24.0553C26.0725 24.754 27.6299 24.3391 28.3286 23.1238C29.0345 21.9084 28.6197 20.3583 27.397 19.6524C27.1841 19.53 26.9607 19.4418 26.7332 19.386V12.6182C26.9661 12.5628 27.1949 12.4733 27.4127 12.3481C28.6281 11.6422 29.0429 10.0921 28.3442 8.87671C27.6383 7.66136 26.0882 7.24654 24.8728 7.94519C24.6547 8.07187 24.4624 8.22573 24.2977 8.39997L18.4298 5.01206ZM15.2901 6.73132C15.5135 6.79541 15.7496 6.82973 15.9938 6.82973C16.2396 6.82973 16.4772 6.79495 16.7019 6.73004L24.3718 20.0144C24.2006 20.1779 24.0496 20.3683 23.9257 20.5839C23.8022 20.7988 23.7135 21.0243 23.6578 21.2539H8.33035C8.27472 21.0244 8.18597 20.7989 8.06237 20.5839C7.93829 20.3703 7.78812 20.1814 7.61828 20.0189L15.2901 6.73132ZM14.17 6.059C14.1936 6.08328 14.2176 6.10708 14.2421 6.1304L6.57173 19.4155C6.53897 19.406 6.50602 19.3971 6.47291 19.3888V12.6114C7.11898 12.4505 7.70107 12.0383 8.05846 11.4166C8.41542 10.7956 8.48171 10.0872 8.29905 9.44872L14.17 6.059ZM17.7488 6.12722C17.7733 6.10378 17.7974 6.07985 17.8209 6.05545L23.7004 9.45003C23.5182 10.0882 23.5846 10.796 23.9413 11.4166C24.2984 12.0377 24.8798 12.4498 25.5252 12.6109V19.3857C25.4899 19.3943 25.4548 19.4036 25.4199 19.4137L17.7488 6.12722ZM23.7064 22.6254L17.8691 25.9957C17.4049 25.4882 16.7371 25.1703 15.9938 25.1703C15.276 25.1703 14.6285 25.4668 14.1669 25.9442L8.3013 22.5576C8.31045 22.5259 8.31899 22.494 8.32691 22.4619H23.6605C23.674 22.5169 23.6893 22.5715 23.7064 22.6254Z" fill="white"/>
</svg>
