<svg width="24" height="24" viewBox="0 0 24 24" fill="none" xmlns="http://www.w3.org/2000/svg">
<path d="M7 6.25098C7 5.83676 7.33579 5.50098 7.75 5.50098H9.25C9.66421 5.50098 10 5.83676 10 6.25098V7.75098C10 8.16519 9.66421 8.50098 9.25 8.50098H7.75C7.33579 8.50098 7 8.16519 7 7.75098V6.25098Z" fill="white"/>
<path d="M11.75 6.50098C11.3358 6.50098 11 6.83676 11 7.25098C11 7.66519 11.3358 8.00098 11.75 8.00098H13.75C14.1642 8.00098 14.5 7.66519 14.5 7.25098C14.5 6.83676 14.1642 6.50098 13.75 6.50098H11.75Z" fill="white"/>
<path d="M7 11.251C7 10.8368 7.33579 10.501 7.75 10.501H13.75C14.1642 10.501 14.5 10.8368 14.5 11.251C14.5 11.6652 14.1642 12.001 13.75 12.001H7.75C7.33579 12.001 7 11.6652 7 11.251Z" fill="white"/>
<path d="M7.75 14.0322C7.33579 14.0322 7 14.368 7 14.7822C7 15.1964 7.33579 15.5322 7.75 15.5322H13.75C14.1642 15.5322 14.5 15.1964 14.5 14.7822C14.5 14.368 14.1642 14.0322 13.75 14.0322H7.75Z" fill="white"/>
<path d="M4 4.25098C4 3.00834 5.00736 2.00098 6.25 2.00098H15.25C16.4926 2.00098 17.5 3.00834 17.5 4.25098V17.251C17.5 18.4936 16.4926 19.501 15.25 19.501H6.25C5.00736 19.501 4 18.4936 4 17.251V4.25098ZM5.50387 4.17429C5.50131 4.19951 5.5 4.22509 5.5 4.25098V17.251C5.5 17.6652 5.83579 18.001 6.25 18.001H15.25C15.6642 18.001 16 17.6652 16 17.251V4.25098C16 3.83676 15.6642 3.50098 15.25 3.50098L6.25 3.50098C5.86167 3.50098 5.54228 3.7961 5.50387 4.17429Z" fill="white"/>
<path d="M8.75088 22.001C7.77121 22.001 6.93778 21.3749 6.62891 20.501H15.2509C17.0458 20.501 18.5009 19.0459 18.5009 17.251V8.93787L19.3419 9.77886C19.7638 10.2008 20.0009 10.7731 20.0009 11.3698V17.251C20.0009 19.8744 17.8742 22.001 15.2509 22.001H8.75088Z" fill="white"/>
</svg>
